<mxfile host="app.diagrams.net" agent="Mozilla/5.0 (Windows NT 10.0; Win64; x64) AppleWebKit/537.36 (KHTML, like Gecko) Chrome/132.0.0.0 Safari/537.36 Edg/132.0.0.0" version="26.0.6">
  <diagram name="Page-1" id="yAoiKZLD1oSMSYRyqzpV">
    <mxGraphModel dx="669" dy="686" grid="1" gridSize="10" guides="1" tooltips="1" connect="1" arrows="1" fold="1" page="1" pageScale="1" pageWidth="827" pageHeight="1169" math="0" shadow="0">
      <root>
        <mxCell id="0" />
        <mxCell id="1" parent="0" />
        <mxCell id="PfuIa7huA0Ow4549m9Gd-27" style="edgeStyle=orthogonalEdgeStyle;rounded=0;orthogonalLoop=1;jettySize=auto;html=1;entryX=0.5;entryY=0;entryDx=0;entryDy=0;" edge="1" parent="1" source="PfuIa7huA0Ow4549m9Gd-1" target="PfuIa7huA0Ow4549m9Gd-15">
          <mxGeometry relative="1" as="geometry">
            <mxPoint x="70" y="150" as="targetPoint" />
          </mxGeometry>
        </mxCell>
        <mxCell id="PfuIa7huA0Ow4549m9Gd-1" value="Category ID" style="rounded=1;whiteSpace=wrap;html=1;" vertex="1" parent="1">
          <mxGeometry x="120" y="60" width="120" height="60" as="geometry" />
        </mxCell>
        <mxCell id="PfuIa7huA0Ow4549m9Gd-32" style="edgeStyle=orthogonalEdgeStyle;rounded=0;orthogonalLoop=1;jettySize=auto;html=1;entryX=0;entryY=0.5;entryDx=0;entryDy=0;" edge="1" parent="1" source="PfuIa7huA0Ow4549m9Gd-2" target="PfuIa7huA0Ow4549m9Gd-6">
          <mxGeometry relative="1" as="geometry">
            <Array as="points">
              <mxPoint x="320" y="430" />
              <mxPoint x="320" y="90" />
            </Array>
          </mxGeometry>
        </mxCell>
        <mxCell id="PfuIa7huA0Ow4549m9Gd-2" value="Cake" style="rounded=1;whiteSpace=wrap;html=1;" vertex="1" parent="1">
          <mxGeometry x="150" y="400" width="120" height="60" as="geometry" />
        </mxCell>
        <mxCell id="PfuIa7huA0Ow4549m9Gd-31" style="edgeStyle=orthogonalEdgeStyle;rounded=0;orthogonalLoop=1;jettySize=auto;html=1;entryX=0;entryY=0.5;entryDx=0;entryDy=0;" edge="1" parent="1" source="PfuIa7huA0Ow4549m9Gd-3" target="PfuIa7huA0Ow4549m9Gd-6">
          <mxGeometry relative="1" as="geometry">
            <mxPoint x="330" y="340" as="targetPoint" />
            <Array as="points">
              <mxPoint x="320" y="350" />
              <mxPoint x="320" y="90" />
            </Array>
          </mxGeometry>
        </mxCell>
        <mxCell id="PfuIa7huA0Ow4549m9Gd-3" value="Bread" style="rounded=1;whiteSpace=wrap;html=1;" vertex="1" parent="1">
          <mxGeometry x="150" y="320" width="120" height="60" as="geometry" />
        </mxCell>
        <mxCell id="PfuIa7huA0Ow4549m9Gd-30" style="edgeStyle=orthogonalEdgeStyle;rounded=0;orthogonalLoop=1;jettySize=auto;html=1;entryX=0;entryY=0.5;entryDx=0;entryDy=0;" edge="1" parent="1" source="PfuIa7huA0Ow4549m9Gd-4" target="PfuIa7huA0Ow4549m9Gd-6">
          <mxGeometry relative="1" as="geometry">
            <Array as="points">
              <mxPoint x="320" y="270" />
              <mxPoint x="320" y="90" />
            </Array>
          </mxGeometry>
        </mxCell>
        <mxCell id="PfuIa7huA0Ow4549m9Gd-4" value="Meat" style="rounded=1;whiteSpace=wrap;html=1;" vertex="1" parent="1">
          <mxGeometry x="150" y="240" width="120" height="60" as="geometry" />
        </mxCell>
        <mxCell id="PfuIa7huA0Ow4549m9Gd-28" style="edgeStyle=orthogonalEdgeStyle;rounded=0;orthogonalLoop=1;jettySize=auto;html=1;entryX=0;entryY=0.5;entryDx=0;entryDy=0;" edge="1" parent="1" source="PfuIa7huA0Ow4549m9Gd-5" target="PfuIa7huA0Ow4549m9Gd-6">
          <mxGeometry relative="1" as="geometry">
            <Array as="points">
              <mxPoint x="320" y="190" />
              <mxPoint x="320" y="90" />
            </Array>
          </mxGeometry>
        </mxCell>
        <mxCell id="PfuIa7huA0Ow4549m9Gd-5" value="Cheese" style="rounded=1;whiteSpace=wrap;html=1;" vertex="1" parent="1">
          <mxGeometry x="150" y="160" width="120" height="60" as="geometry" />
        </mxCell>
        <mxCell id="PfuIa7huA0Ow4549m9Gd-29" style="edgeStyle=orthogonalEdgeStyle;rounded=0;orthogonalLoop=1;jettySize=auto;html=1;entryX=0.5;entryY=0;entryDx=0;entryDy=0;" edge="1" parent="1" source="PfuIa7huA0Ow4549m9Gd-6" target="PfuIa7huA0Ow4549m9Gd-7">
          <mxGeometry relative="1" as="geometry" />
        </mxCell>
        <mxCell id="PfuIa7huA0Ow4549m9Gd-6" value="Product ID" style="rounded=1;whiteSpace=wrap;html=1;" vertex="1" parent="1">
          <mxGeometry x="480" y="60" width="120" height="60" as="geometry" />
        </mxCell>
        <mxCell id="PfuIa7huA0Ow4549m9Gd-23" value="" style="edgeStyle=orthogonalEdgeStyle;rounded=0;orthogonalLoop=1;jettySize=auto;html=1;" edge="1" parent="1" source="PfuIa7huA0Ow4549m9Gd-7" target="PfuIa7huA0Ow4549m9Gd-11">
          <mxGeometry relative="1" as="geometry" />
        </mxCell>
        <mxCell id="PfuIa7huA0Ow4549m9Gd-33" value="" style="edgeStyle=orthogonalEdgeStyle;rounded=0;orthogonalLoop=1;jettySize=auto;html=1;" edge="1" parent="1" source="PfuIa7huA0Ow4549m9Gd-7" target="PfuIa7huA0Ow4549m9Gd-10">
          <mxGeometry relative="1" as="geometry" />
        </mxCell>
        <mxCell id="PfuIa7huA0Ow4549m9Gd-7" value="1" style="rounded=1;whiteSpace=wrap;html=1;" vertex="1" parent="1">
          <mxGeometry x="370" y="160" width="120" height="60" as="geometry" />
        </mxCell>
        <mxCell id="PfuIa7huA0Ow4549m9Gd-24" value="" style="edgeStyle=orthogonalEdgeStyle;rounded=0;orthogonalLoop=1;jettySize=auto;html=1;" edge="1" parent="1" source="PfuIa7huA0Ow4549m9Gd-8" target="PfuIa7huA0Ow4549m9Gd-12">
          <mxGeometry relative="1" as="geometry" />
        </mxCell>
        <mxCell id="PfuIa7huA0Ow4549m9Gd-34" value="" style="edgeStyle=orthogonalEdgeStyle;rounded=0;orthogonalLoop=1;jettySize=auto;html=1;" edge="1" parent="1" source="PfuIa7huA0Ow4549m9Gd-8" target="PfuIa7huA0Ow4549m9Gd-10">
          <mxGeometry relative="1" as="geometry" />
        </mxCell>
        <mxCell id="PfuIa7huA0Ow4549m9Gd-8" value="2" style="rounded=1;whiteSpace=wrap;html=1;" vertex="1" parent="1">
          <mxGeometry x="370" y="240" width="120" height="60" as="geometry" />
        </mxCell>
        <mxCell id="PfuIa7huA0Ow4549m9Gd-26" value="" style="edgeStyle=orthogonalEdgeStyle;rounded=0;orthogonalLoop=1;jettySize=auto;html=1;" edge="1" parent="1" source="PfuIa7huA0Ow4549m9Gd-9" target="PfuIa7huA0Ow4549m9Gd-13">
          <mxGeometry relative="1" as="geometry" />
        </mxCell>
        <mxCell id="PfuIa7huA0Ow4549m9Gd-9" value="4" style="rounded=1;whiteSpace=wrap;html=1;" vertex="1" parent="1">
          <mxGeometry x="370" y="400" width="120" height="60" as="geometry" />
        </mxCell>
        <mxCell id="PfuIa7huA0Ow4549m9Gd-25" value="" style="edgeStyle=orthogonalEdgeStyle;rounded=0;orthogonalLoop=1;jettySize=auto;html=1;" edge="1" parent="1" source="PfuIa7huA0Ow4549m9Gd-10" target="PfuIa7huA0Ow4549m9Gd-14">
          <mxGeometry relative="1" as="geometry" />
        </mxCell>
        <mxCell id="PfuIa7huA0Ow4549m9Gd-35" value="" style="edgeStyle=orthogonalEdgeStyle;rounded=0;orthogonalLoop=1;jettySize=auto;html=1;" edge="1" parent="1" source="PfuIa7huA0Ow4549m9Gd-10" target="PfuIa7huA0Ow4549m9Gd-9">
          <mxGeometry relative="1" as="geometry" />
        </mxCell>
        <mxCell id="PfuIa7huA0Ow4549m9Gd-10" value="3" style="rounded=1;whiteSpace=wrap;html=1;" vertex="1" parent="1">
          <mxGeometry x="370" y="320" width="120" height="60" as="geometry" />
        </mxCell>
        <mxCell id="PfuIa7huA0Ow4549m9Gd-11" value="Brie" style="rounded=1;whiteSpace=wrap;html=1;" vertex="1" parent="1">
          <mxGeometry x="510" y="160" width="120" height="60" as="geometry" />
        </mxCell>
        <mxCell id="PfuIa7huA0Ow4549m9Gd-12" value="Horse" style="rounded=1;whiteSpace=wrap;html=1;" vertex="1" parent="1">
          <mxGeometry x="510" y="240" width="120" height="60" as="geometry" />
        </mxCell>
        <mxCell id="PfuIa7huA0Ow4549m9Gd-13" value="Chocolate" style="rounded=1;whiteSpace=wrap;html=1;" vertex="1" parent="1">
          <mxGeometry x="510" y="400" width="120" height="60" as="geometry" />
        </mxCell>
        <mxCell id="PfuIa7huA0Ow4549m9Gd-14" value="White" style="rounded=1;whiteSpace=wrap;html=1;" vertex="1" parent="1">
          <mxGeometry x="510" y="320" width="120" height="60" as="geometry" />
        </mxCell>
        <mxCell id="PfuIa7huA0Ow4549m9Gd-19" value="" style="edgeStyle=orthogonalEdgeStyle;rounded=0;orthogonalLoop=1;jettySize=auto;html=1;" edge="1" parent="1" source="PfuIa7huA0Ow4549m9Gd-15" target="PfuIa7huA0Ow4549m9Gd-5">
          <mxGeometry relative="1" as="geometry" />
        </mxCell>
        <mxCell id="PfuIa7huA0Ow4549m9Gd-38" value="" style="edgeStyle=orthogonalEdgeStyle;rounded=0;orthogonalLoop=1;jettySize=auto;html=1;entryX=0.5;entryY=0;entryDx=0;entryDy=0;" edge="1" parent="1" source="PfuIa7huA0Ow4549m9Gd-15" target="PfuIa7huA0Ow4549m9Gd-16">
          <mxGeometry relative="1" as="geometry" />
        </mxCell>
        <mxCell id="PfuIa7huA0Ow4549m9Gd-15" value="1" style="rounded=1;whiteSpace=wrap;html=1;" vertex="1" parent="1">
          <mxGeometry x="10" y="160" width="120" height="60" as="geometry" />
        </mxCell>
        <mxCell id="PfuIa7huA0Ow4549m9Gd-20" value="" style="edgeStyle=orthogonalEdgeStyle;rounded=0;orthogonalLoop=1;jettySize=auto;html=1;" edge="1" parent="1" source="PfuIa7huA0Ow4549m9Gd-16" target="PfuIa7huA0Ow4549m9Gd-4">
          <mxGeometry relative="1" as="geometry" />
        </mxCell>
        <mxCell id="PfuIa7huA0Ow4549m9Gd-37" value="" style="edgeStyle=orthogonalEdgeStyle;rounded=0;orthogonalLoop=1;jettySize=auto;html=1;" edge="1" parent="1" source="PfuIa7huA0Ow4549m9Gd-16" target="PfuIa7huA0Ow4549m9Gd-18">
          <mxGeometry relative="1" as="geometry" />
        </mxCell>
        <mxCell id="PfuIa7huA0Ow4549m9Gd-16" value="2" style="rounded=1;whiteSpace=wrap;html=1;" vertex="1" parent="1">
          <mxGeometry x="10" y="240" width="120" height="60" as="geometry" />
        </mxCell>
        <mxCell id="PfuIa7huA0Ow4549m9Gd-22" value="" style="edgeStyle=orthogonalEdgeStyle;rounded=0;orthogonalLoop=1;jettySize=auto;html=1;" edge="1" parent="1" source="PfuIa7huA0Ow4549m9Gd-17" target="PfuIa7huA0Ow4549m9Gd-2">
          <mxGeometry relative="1" as="geometry" />
        </mxCell>
        <mxCell id="PfuIa7huA0Ow4549m9Gd-17" value="4" style="rounded=1;whiteSpace=wrap;html=1;" vertex="1" parent="1">
          <mxGeometry x="10" y="400" width="120" height="60" as="geometry" />
        </mxCell>
        <mxCell id="PfuIa7huA0Ow4549m9Gd-21" value="" style="edgeStyle=orthogonalEdgeStyle;rounded=0;orthogonalLoop=1;jettySize=auto;html=1;" edge="1" parent="1" source="PfuIa7huA0Ow4549m9Gd-18" target="PfuIa7huA0Ow4549m9Gd-3">
          <mxGeometry relative="1" as="geometry" />
        </mxCell>
        <mxCell id="PfuIa7huA0Ow4549m9Gd-39" value="" style="edgeStyle=orthogonalEdgeStyle;rounded=0;orthogonalLoop=1;jettySize=auto;html=1;" edge="1" parent="1" source="PfuIa7huA0Ow4549m9Gd-18" target="PfuIa7huA0Ow4549m9Gd-17">
          <mxGeometry relative="1" as="geometry" />
        </mxCell>
        <mxCell id="PfuIa7huA0Ow4549m9Gd-18" value="3" style="rounded=1;whiteSpace=wrap;html=1;" vertex="1" parent="1">
          <mxGeometry x="10" y="320" width="120" height="60" as="geometry" />
        </mxCell>
      </root>
    </mxGraphModel>
  </diagram>
</mxfile>
